<mxfile host="app.diagrams.net" modified="2024-06-20T16:32:48.153Z" agent="Mozilla/5.0 (Windows NT 10.0; Win64; x64) AppleWebKit/537.36 (KHTML, like Gecko) Chrome/126.0.0.0 Safari/537.36" etag="iGRZ9zcV-y5useJlfZLf" version="24.5.5" type="device">
  <diagram name="Page-1" id="S7jkVeKXbSkZLnjxhSJ5">
    <mxGraphModel dx="1434" dy="746" grid="1" gridSize="10" guides="1" tooltips="1" connect="1" arrows="1" fold="1" page="1" pageScale="1" pageWidth="827" pageHeight="1169" math="0" shadow="0">
      <root>
        <mxCell id="0" />
        <mxCell id="1" parent="0" />
        <mxCell id="tsa0-zTeGC2jSgFrdYST-1" style="edgeStyle=orthogonalEdgeStyle;rounded=0;orthogonalLoop=1;jettySize=auto;html=1;exitX=0.5;exitY=1;exitDx=0;exitDy=0;entryX=0.5;entryY=1;entryDx=0;entryDy=0;fontFamily=Times New Roman;fontSize=18;" parent="1" source="tsa0-zTeGC2jSgFrdYST-2" target="tsa0-zTeGC2jSgFrdYST-4" edge="1">
          <mxGeometry relative="1" as="geometry">
            <Array as="points">
              <mxPoint x="260" y="362" />
              <mxPoint x="515" y="362" />
            </Array>
          </mxGeometry>
        </mxCell>
        <mxCell id="tsa0-zTeGC2jSgFrdYST-2" value="&lt;font style=&quot;font-size: 20px;&quot;&gt;User&lt;/font&gt;" style="rounded=0;whiteSpace=wrap;html=1;fontSize=18;fontFamily=Times New Roman;fillColor=#d5e8d4;strokeColor=#82b366;" parent="1" vertex="1">
          <mxGeometry x="200" y="242" width="120" height="60" as="geometry" />
        </mxCell>
        <mxCell id="tsa0-zTeGC2jSgFrdYST-3" style="edgeStyle=orthogonalEdgeStyle;rounded=0;orthogonalLoop=1;jettySize=auto;html=1;exitX=0.5;exitY=0;exitDx=0;exitDy=0;entryX=0.5;entryY=0;entryDx=0;entryDy=0;" parent="1" source="tsa0-zTeGC2jSgFrdYST-4" target="tsa0-zTeGC2jSgFrdYST-2" edge="1">
          <mxGeometry relative="1" as="geometry" />
        </mxCell>
        <mxCell id="tsa0-zTeGC2jSgFrdYST-4" value="&lt;font style=&quot;font-size: 20px;&quot;&gt;MyGram&lt;/font&gt;" style="ellipse;whiteSpace=wrap;html=1;aspect=fixed;fontSize=18;fontFamily=Times New Roman;fillColor=#fff2cc;strokeColor=#d6b656;" parent="1" vertex="1">
          <mxGeometry x="450" y="207" width="130" height="130" as="geometry" />
        </mxCell>
        <mxCell id="tsa0-zTeGC2jSgFrdYST-5" value="Data User" style="text;html=1;align=center;verticalAlign=middle;whiteSpace=wrap;rounded=0;fontSize=18;fontFamily=Times New Roman;" parent="1" vertex="1">
          <mxGeometry x="340" y="160" width="80" height="30" as="geometry" />
        </mxCell>
        <mxCell id="tsa0-zTeGC2jSgFrdYST-6" value="Data User" style="text;html=1;align=center;verticalAlign=middle;whiteSpace=wrap;rounded=0;fontSize=18;fontFamily=Times New Roman;" parent="1" vertex="1">
          <mxGeometry x="341" y="361" width="80" height="30" as="geometry" />
        </mxCell>
      </root>
    </mxGraphModel>
  </diagram>
</mxfile>
